# xmcd
#
# Track frame offsets:
# 150
# 17620
# 34659
# 49103
# 64226
# 83955
# 100943
# 117281
# 135764
# 150140
# 169560
# 182686
# 213682
#
# Disc length: 2997 seconds
#
# Revision: 9
# Processed by: cddbd v1.5.2PL0 Copyright (c) Steve Scherf et al.
# Submitted via: TinyPlayer 2.8
#
DISCID=9d0bb30d
DTITLE=Rascal Flats - Feels Like Today
DYEAR=2004
DGENRE=Country
TTITLE0=Where You Are
TTITLE1=Bless the Broken Road
TTITLE2=Then I Did
TTITLE3=Feels Like Today
TTITLE4=Fast Cars and Freedom
TTITLE5=When the Sand Runs Out
TTITLE6=Here's to You
TTITLE7=The Day Before You
TTITLE8=Break Away
TTITLE9=Holes
TTITLE10=Oklahoma-Texas Line
TTITLE11=Skin (Sarabeth)
TTITLE12=Data: Footage including a "Making of the Album" documentary
EXTD=Location:  - UPC: 094634505208 - Catalogue number: 0094634505208,CDANGE06 - Label: Lyric Street Records - ASIN: B000BT7IC8 - Release Date: 2004 09 28 - Discogs: a542243,m157537,r1134443 - MUSICBRAINZ_ALBUMID: d8add909-8e38-4631-8c4e-bd7cebe64d20 - AMG:mn00
EXTD=00868174,mw0000395742;
EXTT0=
EXTT1=
EXTT2=
EXTT3=
EXTT4=
EXTT5=
EXTT6=
EXTT7=
EXTT8=
EXTT9=
EXTT10=
EXTT11=
EXTT12=
PLAYORDER=
